<svg width="122" height="126" viewBox="0 0 122 126" fill="none" xmlns="http://www.w3.org/2000/svg">
<path d="M106.181 16.8674C95.8088 5.8313 81.2561 0 64.0929 0C51.2338 0 39.8559 3.45556 30.5577 10.0632C24.3034 13.1986 18.7458 17.5635 14.2175 22.8967C5.04891 33.6293 0 48.0539 0 63.5123C0 100.403 23.2024 125.189 57.736 125.189C70.9196 125.189 82.4745 121.713 91.8065 115.066C98.1464 111.901 103.757 107.448 108.279 101.992C117.106 91.3969 121.967 77.0785 121.967 61.6742C121.969 43.3506 116.51 27.8567 106.181 16.8674ZM64.5153 112.06C34.5351 112.06 15.8169 90.8058 15.8169 59.4198C15.8169 43.3054 22.2445 27.4283 35.1187 17.9291C42.0534 14.6572 49.6444 13.0145 57.3113 13.1264C86.8683 13.1264 106.151 32.9704 106.151 65.7668C106.151 81.5897 100.178 97.6303 87.2064 107.236C80.894 110.285 73.3631 112.06 64.5153 112.06Z" fill="black"/>
<path d="M64.5154 31.9742C58.5997 31.9742 53.7399 33.874 50.0577 37.307C40.3913 40.6992 35.0728 50.8362 35.0728 64.9167C35.0728 80.6824 43.6571 93.0671 57.169 93.0671C63.2277 93.0671 67.986 91.1959 71.5123 87.8171C81.3767 84.482 86.0453 74.1704 86.0453 59.8414C86.0506 40.9831 77.0416 31.9742 64.5154 31.9742ZM63.9521 79.9406C54.9778 79.9406 50.8905 70.0326 50.8905 60.8264C50.8905 54.2413 52.3212 48.7451 54.9236 45.3498V45.3461C55.8505 45.18 56.7906 45.0978 57.7323 45.1005C66.0259 45.1005 70.2322 51.4364 70.2322 63.931C70.2322 72.068 68.6772 76.9098 66.5884 79.7916C65.7145 79.9059 64.8334 79.9558 63.9521 79.9406V79.9406Z" fill="black"/>
<path d="M112.931 61.733C112.931 86.6439 98.1522 112.119 64.5132 112.119C34.533 112.119 15.8148 90.8646 15.8148 59.4785C15.8148 34.0043 31.8606 9.09259 64.0908 9.09259C93.6485 9.09259 112.931 28.9373 112.931 61.733ZM64.5132 32.0329C50.0163 32.0329 41.8522 43.4334 41.8522 60.8851C41.8522 76.6516 50.4365 89.0355 63.9499 89.0355C79.0101 89.0355 86.0477 77.4949 86.0477 59.9002C86.0484 41.0419 77.0402 32.0329 64.5139 32.0329H64.5132Z" fill="#FCD015"/>
<path d="M64.2061 112.119C57.3037 112.198 50.4535 110.916 44.0466 108.347C38.2308 105.967 33.0093 102.338 28.7515 97.7162C24.4194 92.9466 21.1043 87.3446 19.0084 81.2517C16.6645 74.4054 15.4813 67.2156 15.5076 59.9792H41.5526C41.5481 60.2646 41.5451 60.5696 41.5451 60.8829C41.5213 64.622 42.0444 68.3446 43.0978 71.9325C44.0305 75.1515 45.5305 78.1781 47.527 80.8699C49.3721 83.3584 51.7511 85.4021 54.4893 86.851C57.3179 88.3105 60.4592 89.06 63.6421 89.0347C67.0218 89.0992 70.3717 88.3904 73.4357 86.9625C76.1863 85.6116 78.554 83.5921 80.3219 81.089C82.24 78.3152 83.6208 75.2063 84.3926 71.9234C85.328 68.012 85.7806 64.0007 85.7405 59.9792H112.606C112.618 60.5719 112.624 61.1622 112.624 61.733C112.625 64.8519 112.391 67.9664 111.923 71.0499C111.458 74.1241 110.744 77.1556 109.789 80.1146C107.928 86.0091 104.955 91.4923 101.03 96.2674C96.9441 101.189 91.7916 105.115 85.9627 107.749C79.1066 110.746 71.6874 112.236 64.2061 112.119V112.119Z" fill="#FBB500"/>
<path d="M64.2074 114.378C48.9553 114.378 36.0706 109.092 26.9464 99.0919C17.9857 89.2697 13.25 75.5725 13.25 59.4792C13.25 34.124 29.0631 6.83429 63.785 6.83429C79.0304 6.83429 91.8759 11.9292 100.935 21.5676C110.06 31.2814 114.883 45.1668 114.883 61.7345C114.883 75.5567 110.58 88.3344 102.766 97.7146C93.6839 108.615 80.3504 114.378 64.2074 114.378ZM63.785 11.3516C32.1678 11.3516 17.768 36.2995 17.768 59.4785C17.768 90.0837 35.9961 109.86 64.2074 109.86C96.0927 109.86 110.367 85.6884 110.367 61.7338C110.365 30.6572 92.5167 11.3516 63.785 11.3516V11.3516ZM63.6442 91.2945C49.3032 91.2945 39.2875 78.7893 39.2875 60.8851C39.2875 41.6947 48.8356 29.7739 64.2074 29.7739C79.1064 29.7739 88.0024 41.0359 88.0024 59.9002C88.0009 79.8518 79.123 91.2945 63.6442 91.2945ZM64.2074 34.292C51.4319 34.292 43.8055 44.2316 43.8055 60.8851C43.8055 76.1297 51.9636 86.7765 63.6442 86.7765C72.6946 86.7765 83.4829 82.1139 83.4829 59.9002C83.4829 43.6255 76.4573 34.292 64.2074 34.292Z" fill="#FCD015"/>
</svg>
