<svg width="97" height="112" viewBox="0 0 97 112" fill="none" xmlns="http://www.w3.org/2000/svg">
<path d="M30.873 13.7358C30.9706 13.7321 31.0683 13.7429 31.1628 13.768C31.7909 14.1451 42.0873 32.6039 46.4822 42.901H47.2365C52.6367 32.8549 62.9331 13.8935 63.8122 13.768C63.8317 13.7669 63.8512 13.7669 63.8707 13.768C65.6447 13.768 83.7789 18.6859 83.9031 20.1741C84.0293 21.8068 64.3142 56.5903 63.4351 57.8459C68.2071 65.7566 85.6613 96.6479 85.5365 97.527C85.179 98.481 69.3037 103.853 64.1585 103.853C63.9167 103.855 63.6752 103.839 63.4358 103.806C62.6828 103.554 52.3857 84.7181 47.1117 74.4216H46.3581C41.2095 84.7181 31.0379 103.554 30.4105 103.554C30.0498 103.611 29.6849 103.638 29.3198 103.633C23.8046 103.633 9.04562 99.3391 8.81237 98.4061C8.56138 97.527 25.6391 66.2593 30.7876 57.8459C30.0333 56.7158 10.6961 21.9323 10.8216 20.2996C10.8216 18.8587 28.0648 13.7378 30.8743 13.7378L30.873 13.7358ZM30.8743 5.85333C27.7968 5.85333 21.1351 7.79617 17.4373 8.95453C15.5404 9.54586 12.8065 10.4506 10.5607 11.3744C8.32681 12.2942 3.14806 14.4217 2.94372 19.9579C2.8202 22.3568 3.62244 24.1899 6.77293 30.3062C8.43326 33.5297 10.7151 37.8089 13.547 43.0251C15.9557 47.4582 19.344 53.6153 21.6732 57.7723C18.5904 63.1009 14.3275 70.7856 10.8485 77.1851C8.24732 81.969 6.02127 86.1445 4.40956 89.2621C1.34974 95.184 0.300455 97.2123 1.20388 100.481C2.37209 104.798 6.32417 106.202 8.69804 107.046C10.4109 107.655 12.6593 108.342 15.0286 108.981C18.5372 109.929 25.0589 111.517 29.3178 111.517C30.0012 111.521 30.684 111.477 31.3612 111.386C35.1155 110.953 37.0117 108.035 37.6687 107.027C38.0833 106.39 38.6011 105.537 39.2515 104.42C40.3646 102.511 41.8712 99.8135 43.609 96.6209C44.6478 94.7155 45.7247 92.7109 46.7923 90.7043C47.8948 92.7411 49.002 94.772 50.0618 96.6925C51.8358 99.9081 53.3739 102.626 54.5079 104.554C56.6006 108.113 57.8628 110.26 60.9337 111.285L61.5789 111.501L62.2505 111.603C62.8813 111.696 63.5182 111.741 64.1558 111.739C68.0895 111.739 74.4004 110.016 79.0016 108.571C81.4615 107.798 83.8242 106.976 85.6561 106.255C88.2842 105.22 91.5543 103.932 92.917 100.296L93.2179 99.4915L93.3395 98.642C93.7501 95.7628 92.9018 94.1886 89.7461 88.3305C88.1344 85.3396 85.8696 81.2384 83.1974 76.4696C79.3735 69.6476 75.3669 62.6206 72.5771 57.8308C75.2197 53.2217 79.0489 46.3846 80.9392 42.9765C83.8262 37.7702 86.1541 33.4856 87.8598 30.2412C91.1988 23.8844 91.9597 22.1373 91.7619 19.5696V19.5459V19.5216C91.3086 14.0682 86.2369 12.1228 83.7993 11.1858C81.5345 10.3159 78.7164 9.4381 76.7506 8.85531C73.0114 7.74558 66.3694 5.88485 63.8727 5.88485C63.6132 5.88485 63.3523 5.89667 63.0987 5.91966L62.8976 5.93743L62.7005 5.96634C58.6801 6.54125 56.9087 9.48869 54.8575 12.902C53.7346 14.7706 52.2149 17.4178 50.3417 20.772C49.3463 22.5532 48.3003 24.4448 47.2536 26.3568C46.157 24.2418 45.1465 22.3436 44.3626 20.8824C42.8074 17.9914 41.2746 15.2273 40.042 13.0945C38.1057 9.7397 37.2219 8.20815 35.2324 7.01365L34.4874 6.56619L33.6634 6.29157C32.7665 5.99594 31.8273 5.84878 30.8829 5.85594L30.8743 5.85333Z" fill="black"/>
<path d="M34.1615 8.475C34.259 8.47121 34.3564 8.48207 34.4506 8.5072C35.0794 8.88434 45.3758 27.3431 49.7708 37.6402H50.5218C55.9206 27.5941 66.2177 8.63335 67.0968 8.5072C67.1165 8.50613 67.1363 8.50613 67.156 8.5072C68.93 8.5072 87.0642 13.4251 87.189 14.9133C87.3151 16.5467 67.5994 51.3295 66.7203 52.5851C71.4924 60.4959 88.9472 91.3871 88.8217 92.2662C88.4636 93.2202 72.5883 98.5921 67.4437 98.5921C67.202 98.5942 66.9604 98.5784 66.721 98.5448C65.968 98.2938 55.671 79.4579 50.3969 69.1608H49.6433C44.4948 79.4579 34.3232 98.2938 33.6951 98.2938C33.3344 98.3508 32.9695 98.3769 32.6044 98.372C27.0899 98.372 12.3309 94.079 12.0976 93.1453C11.846 92.2662 28.9243 60.9985 34.0729 52.5851C33.3186 51.4557 13.98 16.6715 14.1062 15.0388C14.1062 13.5979 31.3494 8.47697 34.1596 8.47697L34.1615 8.475ZM34.1596 0.592529C31.082 0.592529 24.4197 2.53537 20.7225 3.69372C18.825 4.28505 16.0917 5.18982 13.846 6.11362C11.6121 7.03347 6.4333 9.16093 6.22831 14.6971C6.10478 17.0966 6.90703 18.9297 10.0575 25.0454C11.7178 28.2689 13.9997 32.5481 16.8316 37.765C19.2403 42.1974 22.6293 48.3545 24.9578 52.5116C21.875 57.8401 17.6121 65.5254 14.1331 71.9243C11.5319 76.7082 9.30651 80.8844 7.69415 84.0013C4.63498 89.9232 3.58504 91.9514 4.48847 95.2202C5.65602 99.5376 9.60941 100.942 11.9826 101.785C13.6962 102.394 15.9446 103.081 18.3132 103.72C21.8218 104.668 28.3435 106.256 32.6024 106.256C33.286 106.26 33.969 106.216 34.6465 106.125C38.4001 105.691 40.2969 102.774 40.954 101.766C41.3686 101.128 41.8857 100.275 42.5361 99.1585C43.6492 97.2491 45.1557 94.552 46.8943 91.3595C47.9324 89.4541 49.0099 87.4494 50.0776 85.4429C51.1794 87.4797 52.2866 89.5106 53.347 91.4311C55.121 94.6466 56.6591 97.3648 57.7932 99.2925C59.8852 102.851 61.1441 104.999 64.219 106.024L64.8642 106.239L65.535 106.341C66.1658 106.434 66.8028 106.48 67.4404 106.477C71.3735 106.477 77.6843 104.755 82.2862 103.31C84.7448 102.538 87.1088 101.715 88.94 100.994C91.5681 99.9581 94.8382 98.6703 96.2009 95.0343L96.5025 94.2301L96.6234 93.3805C97.034 90.5014 96.1858 88.9271 93.0301 83.069C91.4197 80.0782 89.1535 75.9769 86.4813 71.2082C82.6587 64.3862 78.6508 57.3591 75.8623 52.5693C78.5043 47.9602 82.3342 41.1231 84.2231 37.7151C87.1102 32.5094 89.4393 28.2242 91.1437 24.9804C94.4841 18.6229 95.2449 16.8765 95.0458 14.3082V14.2845V14.2602C94.5931 8.8068 89.5215 6.86129 87.0845 5.92501C84.8184 5.05444 82.0004 4.17732 80.0358 3.59387C76.296 2.48413 69.6507 0.623408 67.1579 0.623408C66.8951 0.623408 66.6369 0.635221 66.3839 0.658217L66.1829 0.675982L65.9858 0.704896C61.9654 1.2798 60.1946 4.2279 58.1427 7.64055C57.0205 9.50916 55.5008 12.1564 53.6262 15.5112C52.6321 17.2918 51.5895 19.1834 50.5382 21.096C49.4423 18.9803 48.4317 17.0822 47.6472 15.6216C46.092 12.7306 44.5592 9.96582 43.3266 7.83308C41.3903 4.4822 40.5059 2.9467 38.517 1.75221L37.7719 1.30475L36.948 1.03077C36.0512 0.734673 35.1119 0.587301 34.1675 0.594494L34.1596 0.592529Z" fill="black"/>
<path d="M47.6643 69.1582C42.5157 79.4553 32.3448 98.2912 31.7174 98.2912C27.4466 99.0442 10.3696 94.1473 10.1186 93.1427C9.86759 92.2635 26.9447 60.9958 32.0932 52.5825C31.3396 51.453 12.0023 16.6689 12.1271 15.0361C12.1271 13.5302 30.9631 8.00585 32.4703 8.50651C33.0978 8.88365 43.3949 27.3424 47.7904 37.6395H48.5434C53.9436 27.5934 64.2393 8.63266 65.1185 8.50651C66.4982 8.38167 85.0845 13.4034 85.2106 14.9107C85.3361 16.544 65.6211 51.3269 64.742 52.5825C69.5134 60.4932 86.9682 91.3844 86.8427 92.2635C86.4669 93.2681 68.8859 99.1703 64.742 98.5422C63.989 98.2912 53.6919 79.4553 48.4179 69.1582H47.6643Z" fill="#FCD015"/>
<path d="M65.0687 98.5421C64.3157 98.2912 54.0187 79.4552 48.7479 69.1582H47.991C42.8425 79.4552 32.6716 98.2911 32.0441 98.2911C28.2444 98.9613 14.2982 95.1558 11.0997 93.6025V91.5066C14.2423 84.8705 27.7766 60.1955 32.3522 52.6935H65.1384C70.0044 60.779 87.2969 91.3883 87.1727 92.2628C86.8153 93.2169 70.9439 98.5875 65.7954 98.5881C65.5524 98.5909 65.3095 98.5755 65.0687 98.5421Z" fill="#FBB500"/>
<path d="M67.3871 100.555C67.0628 100.556 66.7389 100.534 66.4179 100.489L66.0894 100.409C65.1965 100.111 64.8266 99.9876 58.5217 88.5677C55.6879 83.4356 52.517 77.5255 50.0282 72.7489C47.6241 77.4598 44.5176 83.3469 41.6982 88.5256C35.5549 99.8083 35.1193 100.242 33.846 100.258C30.8381 100.681 24.4655 99.211 20.8873 98.2813C10.6815 95.6302 10.4141 94.5618 10.1776 93.6164C9.91475 92.7103 9.7919 92.2681 19.3209 74.7417C24.2086 65.7514 29.1567 56.9412 31.7724 52.5608C30.1541 49.7289 25.9294 42.1284 22.0207 34.9345C12.1888 16.841 12.0731 15.7168 12.1303 14.9238C12.1635 14.5268 12.2894 14.1432 12.4977 13.8037C12.7061 13.4643 12.9912 13.1784 13.33 12.9691C15.7703 11.2095 32.4839 5.77256 35.0648 6.63197L35.2711 6.69766L35.4577 6.81002C35.8828 7.06561 36.5254 7.45194 42.4223 18.4113C44.0025 21.3463 47.5774 28.0914 50.268 33.9285C64.8726 6.82447 65.4948 6.73579 66.8089 6.54787L66.91 6.53604C68.9639 6.35404 85.7223 10.9776 88.2217 13.0762C88.4796 13.2768 88.6941 13.5276 88.8523 13.8136C89.0104 14.0996 89.1088 14.4147 89.1415 14.7398C89.2072 15.5617 89.2729 16.3988 79.0442 34.8366C75.0061 42.1185 70.69 49.723 69.0093 52.5798C71.6046 56.9518 76.6808 65.8211 81.3156 74.0886C90.9424 91.2655 90.8853 91.663 90.7611 92.5355L90.7309 92.7471L90.656 92.9442C90.3708 93.7064 89.9806 94.7498 79.7492 97.8897C76.3753 98.9371 70.5901 100.555 67.3871 100.555ZM48.4191 67.1871H51.5958L52.1451 68.2593C57.381 78.4808 65.6144 93.4626 67.7037 96.6256C71.487 96.527 82.4746 93.0684 86.3025 91.435C83.2085 85.318 69.8155 61.5398 65.027 53.5996L64.3647 52.5016L65.1006 51.4504C66.2103 49.7894 81.9595 21.9343 84.8314 15.6327C81.5344 14.1406 71.2103 11.2135 67.9028 10.5893C66.3575 12.8824 61.6216 21.1419 52.2529 38.5711L51.6944 39.6093H48.4611L47.9499 38.4121C43.9657 29.0763 35.6312 14.0223 33.4478 10.5111C30.1994 11.0059 19.6908 14.132 16.4247 15.7142C19.1744 21.8778 34.7087 49.9247 35.7126 51.499L36.3756 52.5371L35.7474 53.6101C31.0825 61.2383 17.5476 86.002 14.5653 92.2504C18.3275 93.6959 28.9452 96.4633 32.687 96.4048C34.7488 93.2655 43.0583 77.9066 47.8744 68.2751L48.4191 67.1871Z" fill="#FCD015"/>
<path d="M4.08447 16.1006L7.45311 10.7096L10.2981 15.7267C10.2981 15.7267 8.58387 19.5185 8.42749 19.6223C8.27112 19.7261 4.08447 16.1006 4.08447 16.1006Z" fill="black"/>
<path d="M95.7501 96.0355L91.9025 102.193L86.957 98.5927L91.9301 92.1741L95.7501 96.0355Z" fill="black"/>
</svg>
